{
	"asset":{
		"generator":"Khronos glTF Blender I/O v5.0.21",
		"version":"2.0"
	},
	"scene":0,
	"scenes":[
		{
			"name":"Scene",
			"nodes":[
				23
			]
		}
	],
	"nodes":[
		{
			"mesh":0,
			"name":"Abdomen"
		},
		{
			"mesh":1,
			"name":"Biceps_L"
		},
		{
			"mesh":2,
			"name":"Biceps_R"
		},
		{
			"mesh":3,
			"name":"Calf_L"
		},
		{
			"mesh":4,
			"name":"Calf_R"
		},
		{
			"mesh":5,
			"name":"Chest"
		},
		{
			"mesh":6,
			"name":"Foot_L"
		},
		{
			"mesh":7,
			"name":"Foot_R"
		},
		{
			"mesh":8,
			"name":"Forearm_L"
		},
		{
			"mesh":9,
			"name":"Forearm_R"
		},
		{
			"mesh":10,
			"name":"Genitalia"
		},
		{
			"mesh":11,
			"name":"Hand_L"
		},
		{
			"mesh":12,
			"name":"Hand_R"
		},
		{
			"mesh":13,
			"name":"Head"
		},
		{
			"mesh":14,
			"name":"Hips"
		},
		{
			"mesh":15,
			"name":"LowerBack"
		},
		{
			"name":"Mesh0__0"
		},
		{
			"mesh":16,
			"name":"Thighs_L"
		},
		{
			"mesh":17,
			"name":"Thighs_R"
		},
		{
			"mesh":18,
			"name":"UpperBack"
		},
		{
			"children":[
				0,
				1,
				2,
				3,
				4,
				5,
				6,
				7,
				8,
				9,
				10,
				11,
				12,
				13,
				14,
				15,
				16,
				17,
				18,
				19
			],
			"name":"Mesh0",
			"scale":[
				100,
				99.99999237060547,
				99.99999237060547
			]
		},
		{
			"children":[
				20
			],
			"name":"RootNode"
		},
		{
			"children":[
				21
			],
			"name":"922fb54be9474748ad24fa584704b084.fbx",
			"rotation":[
				0.70710688829422,
				0,
				0,
				0.7071066498756409
			],
			"scale":[
				0.009999999776482582,
				0.010000000707805157,
				0.010000000707805157
			]
		},
		{
			"children":[
				22
			],
			"name":"Sketchfab_model",
			"rotation":[
				-0.70710688829422,
				0,
				0,
				0.7071066498756409
			]
		}
	],
	"materials":[
		{
			"doubleSided":true,
			"name":"Scene_-_Root",
			"pbrMetallicRoughness":{
				"metallicFactor":0,
				"roughnessFactor":0.6000000238418579
			}
		}
	],
	"meshes":[
		{
			"name":"Mesh0__0.011",
			"primitives":[
				{
					"attributes":{
						"POSITION":0,
						"NORMAL":1
					},
					"indices":2,
					"material":0
				}
			]
		},
		{
			"name":"Mesh0__0.006",
			"primitives":[
				{
					"attributes":{
						"POSITION":3,
						"NORMAL":4
					},
					"indices":5,
					"material":0
				}
			]
		},
		{
			"name":"Mesh0__0.005",
			"primitives":[
				{
					"attributes":{
						"POSITION":6,
						"NORMAL":7
					},
					"indices":8,
					"material":0
				}
			]
		},
		{
			"name":"Mesh0__0.017",
			"primitives":[
				{
					"attributes":{
						"POSITION":9,
						"NORMAL":10
					},
					"indices":11,
					"material":0
				}
			]
		},
		{
			"name":"Mesh0__0.016",
			"primitives":[
				{
					"attributes":{
						"POSITION":12,
						"NORMAL":13
					},
					"indices":14,
					"material":0
				}
			]
		},
		{
			"name":"Mesh0__0.010",
			"primitives":[
				{
					"attributes":{
						"POSITION":15,
						"NORMAL":16
					},
					"indices":17,
					"material":0
				}
			]
		},
		{
			"name":"Mesh0__0.019",
			"primitives":[
				{
					"attributes":{
						"POSITION":18,
						"NORMAL":19
					},
					"indices":20,
					"material":0
				}
			]
		},
		{
			"name":"Mesh0__0.018",
			"primitives":[
				{
					"attributes":{
						"POSITION":21,
						"NORMAL":22
					},
					"indices":23,
					"material":0
				}
			]
		},
		{
			"name":"Mesh0__0.007",
			"primitives":[
				{
					"attributes":{
						"POSITION":24,
						"NORMAL":25
					},
					"indices":26,
					"material":0
				}
			]
		},
		{
			"name":"Mesh0__0.004",
			"primitives":[
				{
					"attributes":{
						"POSITION":27,
						"NORMAL":28
					},
					"indices":29,
					"material":0
				}
			]
		},
		{
			"name":"Mesh0__0.013",
			"primitives":[
				{
					"attributes":{
						"POSITION":30,
						"NORMAL":31
					},
					"indices":32,
					"material":0
				}
			]
		},
		{
			"name":"Mesh0__0.002",
			"primitives":[
				{
					"attributes":{
						"POSITION":33,
						"NORMAL":34
					},
					"indices":35,
					"material":0
				}
			]
		},
		{
			"name":"Mesh0__0.003",
			"primitives":[
				{
					"attributes":{
						"POSITION":36,
						"NORMAL":37
					},
					"indices":38,
					"material":0
				}
			]
		},
		{
			"name":"Mesh0__0.001",
			"primitives":[
				{
					"attributes":{
						"POSITION":39,
						"NORMAL":40
					},
					"indices":41,
					"material":0
				}
			]
		},
		{
			"name":"Mesh0__0.012",
			"primitives":[
				{
					"attributes":{
						"POSITION":42,
						"NORMAL":43
					},
					"indices":44,
					"material":0
				}
			]
		},
		{
			"name":"Mesh0__0.009",
			"primitives":[
				{
					"attributes":{
						"POSITION":45,
						"NORMAL":46
					},
					"indices":47,
					"material":0
				}
			]
		},
		{
			"name":"Mesh0__0.015",
			"primitives":[
				{
					"attributes":{
						"POSITION":48,
						"NORMAL":49
					},
					"indices":50,
					"material":0
				}
			]
		},
		{
			"name":"Mesh0__0.014",
			"primitives":[
				{
					"attributes":{
						"POSITION":51,
						"NORMAL":52
					},
					"indices":53,
					"material":0
				}
			]
		},
		{
			"name":"Mesh0__0.008",
			"primitives":[
				{
					"attributes":{
						"POSITION":54,
						"NORMAL":55
					},
					"indices":56,
					"material":0
				}
			]
		}
	],
	"accessors":[
		{
			"bufferView":0,
			"componentType":5126,
			"count":405,
			"max":[
				0.16828300058841705,
				0.3227800130844116,
				0.11825700104236603
			],
			"min":[
				-0.1696700006723404,
				0.08763899654150009,
				-0.021875999867916107
			],
			"type":"VEC3"
		},
		{
			"bufferView":1,
			"componentType":5126,
			"count":405,
			"type":"VEC3"
		},
		{
			"bufferView":2,
			"componentType":5123,
			"count":2184,
			"type":"SCALAR"
		},
		{
			"bufferView":3,
			"componentType":5126,
			"count":430,
			"max":[
				0.4790230095386505,
				0.6727480292320251,
				0.031929999589920044
			],
			"min":[
				0.1894720047712326,
				0.5452939867973328,
				-0.12355700135231018
			],
			"type":"VEC3"
		},
		{
			"bufferView":4,
			"componentType":5126,
			"count":430,
			"type":"VEC3"
		},
		{
			"bufferView":5,
			"componentType":5123,
			"count":2421,
			"type":"SCALAR"
		},
		{
			"bufferView":6,
			"componentType":5126,
			"count":471,
			"max":[
				-0.19160600006580353,
				0.6727259755134583,
				0.031279999762773514
			],
			"min":[
				-0.499783992767334,
				0.5454350113868713,
				-0.12466999888420105
			],
			"type":"VEC3"
		},
		{
			"bufferView":7,
			"componentType":5126,
			"count":471,
			"type":"VEC3"
		},
		{
			"bufferView":8,
			"componentType":5123,
			"count":2661,
			"type":"SCALAR"
		},
		{
			"bufferView":9,
			"componentType":5126,
			"count":702,
			"max":[
				0.18784600496292114,
				-0.367794007062912,
				0.04513999819755554
			],
			"min":[
				0.06887199729681015,
				-0.8045759797096252,
				-0.11992599815130234
			],
			"type":"VEC3"
		},
		{
			"bufferView":10,
			"componentType":5126,
			"count":702,
			"type":"VEC3"
		},
		{
			"bufferView":11,
			"componentType":5123,
			"count":4056,
			"type":"SCALAR"
		},
		{
			"bufferView":12,
			"componentType":5126,
			"count":676,
			"max":[
				-0.06995200365781784,
				-0.3776420056819916,
				0.042378999292850494
			],
			"min":[
				-0.18849000334739685,
				-0.8006389737129211,
				-0.12084399908781052
			],
			"type":"VEC3"
		},
		{
			"bufferView":13,
			"componentType":5126,
			"count":676,
			"type":"VEC3"
		},
		{
			"bufferView":14,
			"componentType":5123,
			"count":3900,
			"type":"SCALAR"
		},
		{
			"bufferView":15,
			"componentType":5126,
			"count":838,
			"max":[
				0.23475299775600433,
				0.6952199935913086,
				0.11833799630403519
			],
			"min":[
				-0.23696400225162506,
				0.3151620030403137,
				-0.0861240029335022
			],
			"type":"VEC3"
		},
		{
			"bufferView":16,
			"componentType":5126,
			"count":838,
			"type":"VEC3"
		},
		{
			"bufferView":17,
			"componentType":5123,
			"count":4605,
			"type":"SCALAR"
		},
		{
			"bufferView":18,
			"componentType":5126,
			"count":614,
			"max":[
				0.20982100069522858,
				-0.7954639792442322,
				0.14590699970722198
			],
			"min":[
				0.10107599943876266,
				-0.9387739896774292,
				-0.1162170022726059
			],
			"type":"VEC3"
		},
		{
			"bufferView":19,
			"componentType":5126,
			"count":614,
			"type":"VEC3"
		},
		{
			"bufferView":20,
			"componentType":5123,
			"count":3567,
			"type":"SCALAR"
		},
		{
			"bufferView":21,
			"componentType":5126,
			"count":551,
			"max":[
				-0.10226599872112274,
				-0.7921739816665649,
				0.14646899700164795
			],
			"min":[
				-0.2083439975976944,
				-0.9378730058670044,
				-0.11592400074005127
			],
			"type":"VEC3"
		},
		{
			"bufferView":22,
			"componentType":5126,
			"count":551,
			"type":"VEC3"
		},
		{
			"bufferView":23,
			"componentType":5123,
			"count":3210,
			"type":"SCALAR"
		},
		{
			"bufferView":24,
			"componentType":5126,
			"count":475,
			"max":[
				0.7765560150146484,
				0.6561340093612671,
				-0.0027379998937249184
			],
			"min":[
				0.4693810045719147,
				0.5593979954719543,
				-0.09501700103282928
			],
			"type":"VEC3"
		},
		{
			"bufferView":25,
			"componentType":5126,
			"count":475,
			"type":"VEC3"
		},
		{
			"bufferView":26,
			"componentType":5123,
			"count":2700,
			"type":"SCALAR"
		},
		{
			"bufferView":27,
			"componentType":5126,
			"count":468,
			"max":[
				-0.48959898948669434,
				0.6559410095214844,
				-0.0006629999843426049
			],
			"min":[
				-0.7819430232048035,
				0.5589370131492615,
				-0.09276799857616425
			],
			"type":"VEC3"
		},
		{
			"bufferView":28,
			"componentType":5126,
			"count":468,
			"type":"VEC3"
		},
		{
			"bufferView":29,
			"componentType":5123,
			"count":2652,
			"type":"SCALAR"
		},
		{
			"bufferView":30,
			"componentType":5126,
			"count":340,
			"max":[
				0.18216900527477264,
				0.09600599855184555,
				0.10485699772834778
			],
			"min":[
				-0.18344800174236298,
				-0.09303800016641617,
				-0.08235300332307816
			],
			"type":"VEC3"
		},
		{
			"bufferView":31,
			"componentType":5126,
			"count":340,
			"type":"VEC3"
		},
		{
			"bufferView":32,
			"componentType":5123,
			"count":1776,
			"type":"SCALAR"
		},
		{
			"bufferView":33,
			"componentType":5126,
			"count":789,
			"max":[
				0.9982399940490723,
				0.6439819931983948,
				0.05820000171661377
			],
			"min":[
				0.7677900195121765,
				0.5597429871559143,
				-0.0711740031838417
			],
			"type":"VEC3"
		},
		{
			"bufferView":34,
			"componentType":5126,
			"count":789,
			"type":"VEC3"
		},
		{
			"bufferView":35,
			"componentType":5123,
			"count":4626,
			"type":"SCALAR"
		},
		{
			"bufferView":36,
			"componentType":5126,
			"count":773,
			"max":[
				-0.7730579972267151,
				0.643401026725769,
				0.05959299951791763
			],
			"min":[
				-1.0013270378112793,
				0.5591859817504883,
				-0.06971699744462967
			],
			"type":"VEC3"
		},
		{
			"bufferView":37,
			"componentType":5126,
			"count":773,
			"type":"VEC3"
		},
		{
			"bufferView":38,
			"componentType":5123,
			"count":4554,
			"type":"SCALAR"
		},
		{
			"bufferView":39,
			"componentType":5126,
			"count":568,
			"max":[
				0.07998800277709961,
				0.9275820255279541,
				0.11962900310754776
			],
			"min":[
				-0.0807339996099472,
				0.6625710129737854,
				-0.08501099795103073
			],
			"type":"VEC3"
		},
		{
			"bufferView":40,
			"componentType":5126,
			"count":568,
			"type":"VEC3"
		},
		{
			"bufferView":41,
			"componentType":5123,
			"count":3309,
			"type":"SCALAR"
		},
		{
			"bufferView":42,
			"componentType":5126,
			"count":333,
			"max":[
				0.18065600097179413,
				0.14031100273132324,
				0.023135000839829445
			],
			"min":[
				-0.18344800174236298,
				-0.07489699870347977,
				-0.12403500080108643
			],
			"type":"VEC3"
		},
		{
			"bufferView":43,
			"componentType":5126,
			"count":333,
			"type":"VEC3"
		},
		{
			"bufferView":44,
			"componentType":5123,
			"count":1740,
			"type":"SCALAR"
		},
		{
			"bufferView":45,
			"componentType":5126,
			"count":312,
			"max":[
				0.15780599415302277,
				0.3363859951496124,
				-0.0004220000118948519
			],
			"min":[
				-0.1616860032081604,
				0.1324930042028427,
				-0.10157100111246109
			],
			"type":"VEC3"
		},
		{
			"bufferView":46,
			"componentType":5126,
			"count":312,
			"type":"VEC3"
		},
		{
			"bufferView":47,
			"componentType":5123,
			"count":1656,
			"type":"SCALAR"
		},
		{
			"bufferView":48,
			"componentType":5126,
			"count":545,
			"max":[
				0.18619300425052643,
				-0.03890300169587135,
				0.09968499839305878
			],
			"min":[
				0.012133000418543816,
				-0.39342498779296875,
				-0.08465400338172913
			],
			"type":"VEC3"
		},
		{
			"bufferView":49,
			"componentType":5126,
			"count":545,
			"type":"VEC3"
		},
		{
			"bufferView":50,
			"componentType":5123,
			"count":3102,
			"type":"SCALAR"
		},
		{
			"bufferView":51,
			"componentType":5126,
			"count":552,
			"max":[
				-0.014015999622642994,
				-0.03449700027704239,
				0.09762799739837646
			],
			"min":[
				-0.18788200616836548,
				-0.4035220146179199,
				-0.08854100108146667
			],
			"type":"VEC3"
		},
		{
			"bufferView":52,
			"componentType":5126,
			"count":552,
			"type":"VEC3"
		},
		{
			"bufferView":53,
			"componentType":5123,
			"count":3141,
			"type":"SCALAR"
		},
		{
			"bufferView":54,
			"componentType":5126,
			"count":531,
			"max":[
				0.23517900705337524,
				0.7009999752044678,
				-0.020380999892950058
			],
			"min":[
				-0.23696400225162506,
				0.32563599944114685,
				-0.1478949934244156
			],
			"type":"VEC3"
		},
		{
			"bufferView":55,
			"componentType":5126,
			"count":531,
			"type":"VEC3"
		},
		{
			"bufferView":56,
			"componentType":5123,
			"count":2856,
			"type":"SCALAR"
		}
	],
	"bufferViews":[
		{
			"buffer":0,
			"byteLength":4860,
			"byteOffset":0,
			"target":34962
		},
		{
			"buffer":0,
			"byteLength":4860,
			"byteOffset":4860,
			"target":34962
		},
		{
			"buffer":0,
			"byteLength":4368,
			"byteOffset":9720,
			"target":34963
		},
		{
			"buffer":0,
			"byteLength":5160,
			"byteOffset":14088,
			"target":34962
		},
		{
			"buffer":0,
			"byteLength":5160,
			"byteOffset":19248,
			"target":34962
		},
		{
			"buffer":0,
			"byteLength":4842,
			"byteOffset":24408,
			"target":34963
		},
		{
			"buffer":0,
			"byteLength":5652,
			"byteOffset":29252,
			"target":34962
		},
		{
			"buffer":0,
			"byteLength":5652,
			"byteOffset":34904,
			"target":34962
		},
		{
			"buffer":0,
			"byteLength":5322,
			"byteOffset":40556,
			"target":34963
		},
		{
			"buffer":0,
			"byteLength":8424,
			"byteOffset":45880,
			"target":34962
		},
		{
			"buffer":0,
			"byteLength":8424,
			"byteOffset":54304,
			"target":34962
		},
		{
			"buffer":0,
			"byteLength":8112,
			"byteOffset":62728,
			"target":34963
		},
		{
			"buffer":0,
			"byteLength":8112,
			"byteOffset":70840,
			"target":34962
		},
		{
			"buffer":0,
			"byteLength":8112,
			"byteOffset":78952,
			"target":34962
		},
		{
			"buffer":0,
			"byteLength":7800,
			"byteOffset":87064,
			"target":34963
		},
		{
			"buffer":0,
			"byteLength":10056,
			"byteOffset":94864,
			"target":34962
		},
		{
			"buffer":0,
			"byteLength":10056,
			"byteOffset":104920,
			"target":34962
		},
		{
			"buffer":0,
			"byteLength":9210,
			"byteOffset":114976,
			"target":34963
		},
		{
			"buffer":0,
			"byteLength":7368,
			"byteOffset":124188,
			"target":34962
		},
		{
			"buffer":0,
			"byteLength":7368,
			"byteOffset":131556,
			"target":34962
		},
		{
			"buffer":0,
			"byteLength":7134,
			"byteOffset":138924,
			"target":34963
		},
		{
			"buffer":0,
			"byteLength":6612,
			"byteOffset":146060,
			"target":34962
		},
		{
			"buffer":0,
			"byteLength":6612,
			"byteOffset":152672,
			"target":34962
		},
		{
			"buffer":0,
			"byteLength":6420,
			"byteOffset":159284,
			"target":34963
		},
		{
			"buffer":0,
			"byteLength":5700,
			"byteOffset":165704,
			"target":34962
		},
		{
			"buffer":0,
			"byteLength":5700,
			"byteOffset":171404,
			"target":34962
		},
		{
			"buffer":0,
			"byteLength":5400,
			"byteOffset":177104,
			"target":34963
		},
		{
			"buffer":0,
			"byteLength":5616,
			"byteOffset":182504,
			"target":34962
		},
		{
			"buffer":0,
			"byteLength":5616,
			"byteOffset":188120,
			"target":34962
		},
		{
			"buffer":0,
			"byteLength":5304,
			"byteOffset":193736,
			"target":34963
		},
		{
			"buffer":0,
			"byteLength":4080,
			"byteOffset":199040,
			"target":34962
		},
		{
			"buffer":0,
			"byteLength":4080,
			"byteOffset":203120,
			"target":34962
		},
		{
			"buffer":0,
			"byteLength":3552,
			"byteOffset":207200,
			"target":34963
		},
		{
			"buffer":0,
			"byteLength":9468,
			"byteOffset":210752,
			"target":34962
		},
		{
			"buffer":0,
			"byteLength":9468,
			"byteOffset":220220,
			"target":34962
		},
		{
			"buffer":0,
			"byteLength":9252,
			"byteOffset":229688,
			"target":34963
		},
		{
			"buffer":0,
			"byteLength":9276,
			"byteOffset":238940,
			"target":34962
		},
		{
			"buffer":0,
			"byteLength":9276,
			"byteOffset":248216,
			"target":34962
		},
		{
			"buffer":0,
			"byteLength":9108,
			"byteOffset":257492,
			"target":34963
		},
		{
			"buffer":0,
			"byteLength":6816,
			"byteOffset":266600,
			"target":34962
		},
		{
			"buffer":0,
			"byteLength":6816,
			"byteOffset":273416,
			"target":34962
		},
		{
			"buffer":0,
			"byteLength":6618,
			"byteOffset":280232,
			"target":34963
		},
		{
			"buffer":0,
			"byteLength":3996,
			"byteOffset":286852,
			"target":34962
		},
		{
			"buffer":0,
			"byteLength":3996,
			"byteOffset":290848,
			"target":34962
		},
		{
			"buffer":0,
			"byteLength":3480,
			"byteOffset":294844,
			"target":34963
		},
		{
			"buffer":0,
			"byteLength":3744,
			"byteOffset":298324,
			"target":34962
		},
		{
			"buffer":0,
			"byteLength":3744,
			"byteOffset":302068,
			"target":34962
		},
		{
			"buffer":0,
			"byteLength":3312,
			"byteOffset":305812,
			"target":34963
		},
		{
			"buffer":0,
			"byteLength":6540,
			"byteOffset":309124,
			"target":34962
		},
		{
			"buffer":0,
			"byteLength":6540,
			"byteOffset":315664,
			"target":34962
		},
		{
			"buffer":0,
			"byteLength":6204,
			"byteOffset":322204,
			"target":34963
		},
		{
			"buffer":0,
			"byteLength":6624,
			"byteOffset":328408,
			"target":34962
		},
		{
			"buffer":0,
			"byteLength":6624,
			"byteOffset":335032,
			"target":34962
		},
		{
			"buffer":0,
			"byteLength":6282,
			"byteOffset":341656,
			"target":34963
		},
		{
			"buffer":0,
			"byteLength":6372,
			"byteOffset":347940,
			"target":34962
		},
		{
			"buffer":0,
			"byteLength":6372,
			"byteOffset":354312,
			"target":34962
		},
		{
			"buffer":0,
			"byteLength":5712,
			"byteOffset":360684,
			"target":34963
		}
	],
	"buffers":[
		{
			"byteLength":366396,
			"uri":"scene.bin"
		}
	]
}
